<!DOCTYPE svg PUBLIC "-//W3C//DTD SVG 1.1//EN" "http://www.w3.org/Graphics/SVG/1.1/DTD/svg11.dtd">
<!-- Created by: Easy Logo, www.easylogo.dev, Transformed by: Easy Logo Editor -->
<svg width="657.708371480306px" height="100px" viewBox="0 0 157.85000915527345 24" fill="none" xmlns="http://www.w3.org/2000/svg">
      <g id="easylogo_bgCarrier" stroke-width="0"/>
      <g id="easylogo_tracerCarrier" stroke-linecap="round" stroke-linejoin="round"/>
      <g id="easylogo_iconAttributionCarrier">
<g id="easylogo_iconCarrier"> <path d="M7 12H17M8 8.5C8 8.5 9 9 10 9C11.5 9 12.5 8 14 8C15 8 16 8.5 16 8.5M8 15.5C8 15.5 9 16 10 16C11.5 16 12.5 15 14 15C15 15 16 15.5 16 15.5M21 12C21 16.9706 16.9706 21 12 21C7.02944 21 3 16.9706 3 12C3 7.02944 7.02944 3 12 3C16.9706 3 21 7.02944 21 12Z" stroke="#000000" stroke-width="2" stroke-linecap="round" stroke-linejoin="round"/> </g>
</g>

      <g id="easylogo_text">
        <g id="easylogo_textInput" fill="#000000" transform="translate(26.400000000000002 19.200000000000003)">
<path d="M7.55 -11.48Q6.71 -11.48 6.07 -11.16Q5.43 -10.84 4.99 -10.23Q4.56 -9.62 4.33 -8.76Q4.11 -7.89 4.11 -6.82Q4.11 -5.36 4.47 -4.34Q4.83 -3.31 5.59 -2.77Q6.35 -2.23 7.55 -2.23Q8.38 -2.23 9.22 -2.42Q10.06 -2.61 11.04 -2.95L11.04 -0.52Q10.13 -0.14 9.25 0.02Q8.37 0.19 7.28 0.19Q5.16 0.19 3.79 -0.69Q2.43 -1.57 1.77 -3.15Q1.12 -4.72 1.12 -6.83Q1.12 -8.39 1.54 -9.68Q1.96 -10.98 2.77 -11.92Q3.59 -12.87 4.79 -13.39Q5.99 -13.9 7.55 -13.9Q8.57 -13.9 9.6 -13.65Q10.62 -13.39 11.56 -12.94L10.62 -10.57Q9.85 -10.94 9.07 -11.21Q8.3 -11.48 7.55 -11.48ZM18.03 -10.7Q20.14 -10.7 21.26 -9.78Q22.39 -8.86 22.39 -6.98L22.39 0L20.39 0L19.84 -1.43L19.76 -1.43Q19.31 -0.86 18.84 -0.51Q18.38 -0.15 17.77 0.02Q17.16 0.19 16.28 0.19Q15.36 0.19 14.62 -0.17Q13.88 -0.53 13.46 -1.26Q13.04 -2 13.04 -3.13Q13.04 -4.8 14.21 -5.59Q15.38 -6.38 17.73 -6.47L19.55 -6.52L19.55 -6.98Q19.55 -7.81 19.12 -8.19Q18.68 -8.58 17.92 -8.58Q17.16 -8.58 16.42 -8.36Q15.69 -8.15 14.96 -7.82L14.02 -9.75Q14.85 -10.19 15.89 -10.44Q16.92 -10.7 18.03 -10.7ZM19.55 -4.86L18.44 -4.82Q17.05 -4.78 16.51 -4.32Q15.98 -3.86 15.98 -3.11Q15.98 -2.46 16.36 -2.18Q16.74 -1.9 17.36 -1.9Q18.28 -1.9 18.91 -2.45Q19.55 -2.99 19.55 -3.99ZM31.18 -10.68Q31.4 -10.68 31.68 -10.65Q31.97 -10.63 32.15 -10.59L31.93 -7.91Q31.79 -7.96 31.53 -7.98Q31.27 -8.01 31.09 -8.01Q30.53 -8.01 30.01 -7.87Q29.49 -7.72 29.08 -7.41Q28.67 -7.1 28.43 -6.59Q28.19 -6.08 28.19 -5.33L28.19 0L25.33 0L25.33 -10.48L27.5 -10.48L27.92 -8.72L28.06 -8.72Q28.37 -9.25 28.83 -9.7Q29.3 -10.14 29.89 -10.41Q30.49 -10.68 31.18 -10.68ZM38.47 -2.09Q38.93 -2.09 39.38 -2.18Q39.82 -2.28 40.27 -2.42L40.27 -0.29Q39.81 -0.08 39.13 0.05Q38.45 0.19 37.64 0.19Q36.7 0.19 35.96 -0.12Q35.21 -0.42 34.79 -1.18Q34.36 -1.93 34.36 -3.28L34.36 -8.33L32.99 -8.33L32.99 -9.54L34.57 -10.5L35.39 -12.71L37.22 -12.71L37.22 -10.48L40.15 -10.48L40.15 -8.33L37.22 -8.33L37.22 -3.28Q37.22 -2.68 37.56 -2.39Q37.9 -2.09 38.47 -2.09ZM46.71 -10.68Q48.16 -10.68 49.21 -10.12Q50.26 -9.56 50.83 -8.5Q51.4 -7.44 51.4 -5.92L51.4 -4.53L44.64 -4.53Q44.69 -3.32 45.37 -2.63Q46.05 -1.94 47.26 -1.94Q48.26 -1.94 49.1 -2.15Q49.93 -2.35 50.81 -2.77L50.81 -0.55Q50.03 -0.17 49.19 0.01Q48.34 0.19 47.13 0.19Q45.55 0.19 44.34 -0.39Q43.13 -0.98 42.44 -2.17Q41.75 -3.36 41.75 -5.17Q41.75 -7 42.37 -8.23Q42.99 -9.45 44.11 -10.06Q45.22 -10.68 46.71 -10.68ZM46.72 -8.64Q45.89 -8.64 45.34 -8.11Q44.79 -7.57 44.71 -6.43L48.72 -6.43Q48.71 -7.07 48.49 -7.57Q48.27 -8.06 47.84 -8.35Q47.4 -8.64 46.72 -8.64ZM61.04 -3.11Q61.04 -2.04 60.54 -1.31Q60.04 -0.57 59.04 -0.19Q58.05 0.19 56.57 0.19Q55.47 0.19 54.69 0.05Q53.91 -0.09 53.11 -0.42L53.11 -2.78Q53.96 -2.4 54.94 -2.15Q55.92 -1.9 56.66 -1.9Q57.5 -1.9 57.86 -2.15Q58.22 -2.4 58.22 -2.8Q58.22 -3.07 58.07 -3.28Q57.93 -3.49 57.45 -3.75Q56.97 -4.02 55.95 -4.45Q54.97 -4.87 54.33 -5.29Q53.7 -5.71 53.4 -6.29Q53.09 -6.86 53.09 -7.75Q53.09 -9.21 54.22 -9.94Q55.35 -10.68 57.24 -10.68Q58.22 -10.68 59.1 -10.48Q59.99 -10.28 60.93 -9.85L60.07 -7.79Q59.29 -8.13 58.6 -8.34Q57.91 -8.56 57.2 -8.56Q56.57 -8.56 56.25 -8.39Q55.93 -8.22 55.93 -7.88Q55.93 -7.62 56.1 -7.43Q56.26 -7.23 56.73 -6.99Q57.21 -6.75 58.13 -6.38Q59.02 -6.01 59.67 -5.61Q60.33 -5.21 60.68 -4.63Q61.04 -4.04 61.04 -3.11ZM66.13 -10.48L66.13 0L63.27 0L63.27 -10.48ZM64.71 -14.59Q65.34 -14.59 65.8 -14.29Q66.26 -14 66.26 -13.19Q66.26 -12.39 65.8 -12.09Q65.34 -11.78 64.71 -11.78Q64.06 -11.78 63.6 -12.09Q63.15 -12.39 63.15 -13.19Q63.15 -14 63.6 -14.29Q64.06 -14.59 64.71 -14.59ZM73.43 -10.7Q75.53 -10.7 76.66 -9.78Q77.78 -8.86 77.78 -6.98L77.78 0L75.79 0L75.23 -1.43L75.16 -1.43Q74.71 -0.86 74.24 -0.51Q73.77 -0.15 73.16 0.02Q72.55 0.19 71.68 0.19Q70.75 0.19 70.02 -0.17Q69.28 -0.53 68.86 -1.26Q68.44 -2 68.44 -3.13Q68.44 -4.8 69.61 -5.59Q70.78 -6.38 73.13 -6.47L74.94 -6.52L74.94 -6.98Q74.94 -7.81 74.51 -8.19Q74.08 -8.58 73.31 -8.58Q72.55 -8.58 71.82 -8.36Q71.09 -8.15 70.36 -7.82L69.41 -9.75Q70.25 -10.19 71.28 -10.44Q72.32 -10.7 73.43 -10.7ZM74.94 -4.86L73.84 -4.82Q72.45 -4.78 71.91 -4.32Q71.37 -3.86 71.37 -3.11Q71.37 -2.46 71.76 -2.18Q72.14 -1.9 72.76 -1.9Q73.68 -1.9 74.31 -2.45Q74.94 -2.99 74.94 -3.99ZM86.68 -10.68Q88.36 -10.68 89.38 -9.76Q90.4 -8.85 90.4 -6.83L90.4 0L87.54 0L87.54 -6.12Q87.54 -7.25 87.14 -7.82Q86.73 -8.39 85.86 -8.39Q84.54 -8.39 84.07 -7.5Q83.59 -6.61 83.59 -4.93L83.59 0L80.73 0L80.73 -10.48L82.91 -10.48L83.3 -9.14L83.46 -9.14Q83.79 -9.68 84.3 -10.02Q84.8 -10.36 85.41 -10.52Q86.03 -10.68 86.68 -10.68ZM102.87 -5.26Q102.87 -3.95 102.52 -2.93Q102.17 -1.92 101.5 -1.22Q100.83 -0.53 99.89 -0.17Q98.94 0.19 97.76 0.19Q96.66 0.19 95.73 -0.17Q94.81 -0.53 94.13 -1.22Q93.45 -1.92 93.08 -2.93Q92.71 -3.95 92.71 -5.26Q92.71 -7 93.33 -8.21Q93.95 -9.42 95.09 -10.05Q96.23 -10.68 97.82 -10.68Q99.29 -10.68 100.43 -10.05Q101.57 -9.42 102.22 -8.21Q102.87 -7 102.87 -5.26ZM95.63 -5.26Q95.63 -4.23 95.85 -3.53Q96.08 -2.82 96.55 -2.47Q97.03 -2.11 97.8 -2.11Q98.56 -2.11 99.03 -2.47Q99.51 -2.82 99.73 -3.53Q99.95 -4.23 99.95 -5.26Q99.95 -6.3 99.73 -6.99Q99.51 -7.68 99.03 -8.02Q98.55 -8.37 97.78 -8.37Q96.65 -8.37 96.14 -7.59Q95.63 -6.82 95.63 -5.26ZM104.83 -1.34Q104.83 -2.22 105.31 -2.58Q105.8 -2.93 106.48 -2.93Q107.15 -2.93 107.63 -2.58Q108.11 -2.22 108.11 -1.34Q108.11 -0.5 107.63 -0.12Q107.15 0.25 106.48 0.25Q105.8 0.25 105.31 -0.12Q104.83 -0.5 104.83 -1.34ZM115 -10.7Q117.11 -10.7 118.24 -9.78Q119.36 -8.86 119.36 -6.98L119.36 0L117.37 0L116.81 -1.43L116.74 -1.43Q116.29 -0.86 115.82 -0.51Q115.35 -0.15 114.74 0.02Q114.13 0.19 113.26 0.19Q112.33 0.19 111.6 -0.17Q110.86 -0.53 110.44 -1.26Q110.02 -2 110.02 -3.13Q110.02 -4.8 111.19 -5.59Q112.36 -6.38 114.7 -6.47L116.52 -6.52L116.52 -6.98Q116.52 -7.81 116.09 -8.19Q115.66 -8.58 114.89 -8.58Q114.13 -8.58 113.4 -8.36Q112.67 -8.15 111.94 -7.82L110.99 -9.75Q111.82 -10.19 112.86 -10.44Q113.9 -10.7 115 -10.7ZM116.52 -4.86L115.42 -4.82Q114.03 -4.78 113.49 -4.32Q112.95 -3.86 112.95 -3.11Q112.95 -2.46 113.33 -2.18Q113.72 -1.9 114.34 -1.9Q115.26 -1.9 115.89 -2.45Q116.52 -2.99 116.52 -3.99ZM125.17 -10.48L125.17 0L122.31 0L122.31 -10.48ZM123.74 -14.59Q124.38 -14.59 124.84 -14.29Q125.3 -14 125.3 -13.19Q125.3 -12.39 124.84 -12.09Q124.38 -11.78 123.74 -11.78Q123.09 -11.78 122.64 -12.09Q122.18 -12.39 122.18 -13.19Q122.18 -14 122.64 -14.29Q123.09 -14.59 123.74 -14.59Z"/>
</g>
      </g>
      </svg>